HIERARCHY
ROOT ui
{
	 OFFSET 0 0 0
	 CHANNELS 3 XPosition YPosition Z Position
	 EndSite
	 {
	 OFFSET 0 -1 0
	 }
}
ROOT li
{
	 OFFSET 0 0 0
	 CHANNELS 3 XPosition YPosition Z Position
	 EndSite
	 {
	 OFFSET 0 -1 0
	 }
}
ROOT ul
{
	 OFFSET 0 0 0
	 CHANNELS 3 XPosition YPosition Z Position
	 EndSite
	 {
	 OFFSET 0 -1 0
	 }
}
ROOT ll
{
	 OFFSET 0 0 0
	 CHANNELS 3 XPosition YPosition Z Position
	 EndSite
	 {
	 OFFSET 0 -1 0
	 }
}
ROOT tt
{
	 OFFSET 0 0 0
	 CHANNELS 3 XPosition YPosition Z Position
	 EndSite
	 {
	 OFFSET 0 -1 0
	 }
}
ROOT tb
{
	 OFFSET 0 0 0
	 CHANNELS 3 XPosition YPosition Z Position
	 EndSite
	 {
	 OFFSET 0 -1 0
	 }
}
ROOT td
{
	 OFFSET 0 0 0
	 CHANNELS 3 XPosition YPosition Z Position
	 EndSite
	 {
	 OFFSET 0 -1 0
	 }
}
ROOT v
{
	 OFFSET 0 0 0
	 CHANNELS 3 XPosition YPosition Z Position
	 EndSite
	 {
	 OFFSET 0 -1 0
	 }
}
ROOT bn
{
	 OFFSET 0 0 0
	 CHANNELS 3 XPosition YPosition Z Position
	 EndSite
	 {
	 OFFSET 0 -1 0
	 }
}
MOTION
Frames: 21
Frame Time: 0.002
-0.003013700008392334	0.0027320361137390136	0		0.322103271484375	-2.434621337890625	0		-1.0482098388671874	-0.06601425170898438	0		-0.594332763671875	-2.905419677734375	0		1.90887060546875	-0.8551184692382813	0		3.215296142578125	0.2546893768310547	0		4.5001748046875	0.4297193603515625	0		5.98185107421875	0.4616700439453125	0		-0.13412733459472656	5.90948681640625	0		
-0.0029535989761352538	0.0029556310176849366	0		0.37928204345703126	-2.43825732421875	0		-1.122244384765625	-0.07171743774414062	0		-0.621552978515625	-2.87180810546875	0		1.92000537109375	-0.8539304809570313	0		3.23002685546875	0.23491014099121094	0		4.5043125	0.43719790649414064	0		5.9908623046875	0.46117669677734374	0		-0.16755752563476561	5.905212890625	0		
0.0011380170583724977	0.006112339019775391	0		0.37949932861328123	-2.43801171875	0		-1.053463623046875	-0.08963912200927734	0		-0.632856689453125	-2.842451171875	0		1.974765625	-0.8764220581054688	0		3.2540380859375	0.23398599243164062	0		4.527109375	0.4233802185058594	0		5.99501416015625	0.47075357055664063	0		-0.13386851501464844	5.9088955078125	0		
-1.3037599623203278E-4	-0.012656994819641113	0		0.37663064575195315	-2.44172607421875	0		-1.1224871826171876	-0.09243952941894532	0		-0.6214534301757813	-2.830452392578125	0		1.977696044921875	-0.8861171875	0		3.2628447265625	0.2212877197265625	0		4.527103515625	0.4239067077636719	0		5.98988330078125	0.4634594116210938	0		-0.134254150390625	5.90909912109375	0		
-0.0059524431228637695	-3.6074700951576233E-4	0		0.37678884887695313	-2.44149462890625	0		-1.055617919921875	-0.10133241271972657	0		-0.6219478759765625	-2.809275634765625	0		1.995426025390625	-0.907050048828125	0		3.2437333984375	0.2160054931640625	0		4.5388525390625	0.41023721313476563	0		5.981845703125	0.46419290161132815	0		-0.1346609649658203	5.9092958984375	0		
-0.010042649269104004	-0.0031012420654296874	0		0.3598445739746094	-2.445011962890625	0		-1.11286279296875	-0.11433384704589844	0		-0.6696362915039062	-2.797388427734375	0		2.0013482666015623	-0.9128114624023438	0		3.273366455078125	0.195962158203125	0		4.53578125	0.41077838134765626	0		5.99075390625	0.4636459655761719	0		-0.15204486083984375	5.912744140625	0		
0.009880817413330079	-0.0022129499912261963	0		0.3987818908691406	-2.453387451171875	0		-1.0329241943359375	-0.1134237060546875	0		-0.6302223510742188	-2.775831787109375	0		2.024115966796875	-0.9258414916992187	0		3.301322021484375	0.19993382263183593	0		4.5507548828125	0.41702560424804686	0		5.99063525390625	0.46421197509765627	0		-0.15053402709960936	5.91089697265625	0		
-0.003166862964630127	0.004169981956481933	0		0.3789997253417969	-2.438876953125	0		-1.11525927734375	-0.1260582046508789	0		-0.6349873046875	-2.76160791015625	0		2.0376817626953123	-0.9487445068359375	0		3.282915771484375	0.18358815002441406	0		4.55749951171875	0.41137472534179687	0		5.9866044921875	0.47380996704101563	0		-0.18231939697265626	5.891544921875	0		
-0.0033629190921783446	0.004352687835693359	0		0.401828857421875	-2.4460185546875	0		-1.0475762939453126	-0.13495790100097657	0		-0.5960220947265625	-2.76104638671875	0		2.0462808837890627	-0.9655840454101563	0		3.3016025390625	0.17666485595703124	0		4.58006787109375	0.3974614562988281	0		5.98126318359375	0.46639501953125	0		-0.18283610534667968	5.8917177734375	0		
-8.607519865036011E-4	-0.011510634422302246	0		0.37269656372070314	-2.4453837890625	0		-1.127863037109375	-0.13663050842285157	0		-0.626003662109375	-2.751447265625	0		2.070739013671875	-0.9876743774414063	0		3.3119453125	0.15084739685058593	0		4.58367041015625	0.38981060791015626	0		5.98584716796875	0.4577991027832031	0		-0.14931594848632812	5.89637841796875	0		
-0.01104869270324707	-0.0021838750839233397	0		0.374527099609375	-2.442218994140625	0		-1.1203909912109375	-0.15062091064453126	0		-0.6530066528320313	-2.73789501953125	0		2.070160400390625	-1.007400634765625	0		3.342416748046875	0.13771292114257813	0		4.5882236328125	0.38312127685546876	0		5.98550244140625	0.4582467956542969	0		-0.16882850646972655	5.90183349609375	0		
-2.955180108547211E-4	0.007829239845275879	0		0.35817239379882815	-2.445786376953125	0		-1.112661376953125	-0.14260731506347657	0		-0.6461583251953125	-2.728847900390625	0		2.127605712890625	-1.0210020751953126	0		3.34171826171875	0.11802772521972656	0		4.60270751953125	0.376260986328125	0		5.9853427734375	0.4756634216308594	0		-0.13537411499023438	5.907498046875	0		
0.005041901111602783	-0.0050772538185119625	0		0.38068316650390627	-2.452933837890625	0		-1.1212427978515624	-0.15034516906738282	0		-0.64450146484375	-2.72671923828125	0		2.147695068359375	-1.053054931640625	0		3.361139404296875	0.111029541015625	0		4.605017578125	0.36256057739257813	0		5.98460498046875	0.459056396484375	0		-0.16914997863769532	5.901166015625	0		
-0.005352780818939209	0.0052563872337341305	0		0.37133193969726563	-2.444603515625	0		-1.1258267822265624	-0.15313282775878906	0		-0.6538148193359375	-2.716419921875	0		2.151810791015625	-1.0778759765625	0		3.375278564453125	0.09009599304199219	0		4.6203564453125	0.35564785766601564	0		5.9791806640625	0.46849484252929685	0		-0.1850176239013672	5.89157080078125	0		
-0.013078363418579101	-0.0014462629556655884	0		0.37557669067382815	-2.45747412109375	0		-1.1235791015625	-0.1620111083984375	0		-0.6434899291992188	-2.7244052734375	0		2.1527998046875	-1.1056563720703125	0		3.367299072265625	0.066478759765625	0		4.63541259765625	0.33472030639648437	0		5.97541357421875	0.45988107299804687	0		-0.1716243133544922	5.90255078125	0		
-0.009736072540283204	0.00169548499584198	0		0.3588804931640625	-2.460028076171875	0		-1.1142935791015625	-0.1629794616699219	0		-0.6271845092773437	-2.727467529296875	0		2.187775390625	-1.1289427490234376	0		3.387179443359375	0.03843857955932617	0		4.6426884765625	0.33389434814453123	0		5.97882080078125	0.4681395568847656	0		-0.17047142028808593	5.9007197265625	0		
0.005452738761901855	-3.294320106506348E-4	0		0.39016278076171873	-2.458284423828125	0		-1.111027099609375	-0.15984373474121094	0		-0.7066053466796876	-2.705099609375	0		2.193907958984375	-1.1358018798828124	0		3.42926123046875	0.02906512641906738	0		4.6516806640625	0.3190277404785156	0		5.98215234375	0.4763787231445312	0		-0.16938233947753906	5.8978994140625	0		
-0.008312612533569337	0.00608475399017334	0		0.38322918701171876	-2.464968505859375	0		-1.0440064697265625	-0.1686356658935547	0		-0.6267232055664063	-2.725078369140625	0		2.25346630859375	-1.176453857421875	0		3.42694775390625	-0.0016596850156784058	0		4.66851025390625	0.2980334167480469	0		5.98517333984375	0.4686030578613281	0		-0.13915235900878906	5.9076611328125	0		
6.110820174217224E-4	-0.0038269679546356202	0		0.3782420349121094	-2.469671875	0		-1.1209100341796876	-0.1662845001220703	0		-0.627635498046875	-2.724846923828125	0		2.24823583984375	-1.1971451416015626	0		3.42765087890625	-0.0264324893951416	0		4.6673740234375	0.2842958679199219	0		5.97212646484375	0.4610493774414062	0		-0.18935850524902345	5.89162060546875	0		
-0.01733815002441406	-3.287220001220703E-4	0		0.37522073364257813	-2.47139404296875	0		-1.0540306396484376	-0.1750415802001953	0		-0.6286271362304687	-2.724600341796875	0		2.261812255859375	-1.2261126708984376	0		3.433359619140625	-0.046281356811523434	0		4.6830517578125	0.26230126953125	0		5.97912939453125	0.46118707275390625	0		-0.19036201477050782	5.8918681640625	0		
-0.018395389556884766	-6.785999983549118E-5	0		0.37415728759765626	-2.471134033203125	0		-1.1229627685546875	-0.16577482604980467	0		-0.654777099609375	-2.729968017578125	0		2.26742626953125	-1.2479586181640625	0		3.439006103515625	-0.06613037872314453	0		4.69077294921875	0.2474190216064453	0		5.97419189453125	0.4694910278320312	0		-0.17525848388671875	5.90189208984375	0		
